# xmcd CD database file
#
# Track frame offsets:
#	150
#	14287
#	30030
#	50356
#	75002
#	94720
#	119389
#	140118
#	165308
#	179199
#
# Disc length: 2785 seconds
#
# Revision: 0
# Processed by: cddbd v1.4PL0 Copyright (c) Steve Scherf et al.
# Submitted via: CDex 1.50Beta7
#
DISCID=6f0adf0a
DTITLE=Phil Para - Message
DYEAR=1900
DGENRE=Blues
TTITLE0=Message To The Universe
TTITLE1=Fire
TTITLE2=Going Home
TTITLE3=Blues Blues
TTITLE4=Killing Floor
TTITLE5=Changes
TTITLE6=Stone Free
TTITLE7=Nobody Lives Here
TTITLE8=Road Song
TTITLE9=Can't Find My Way Home
EXTD=
EXTT0=
EXTT1=
EXTT2=
EXTT3=
EXTT4=
EXTT5=
EXTT6=
EXTT7=
EXTT8=
EXTT9=
PLAYORDER=
